<?xml version="1.0" standalone="no"?>
<!DOCTYPE svg PUBLIC "-//W3C//DTD SVG 20010904//EN"
 "http://www.w3.org/TR/2001/REC-SVG-20010904/DTD/svg10.dtd">
<svg version="1.0" xmlns="http://www.w3.org/2000/svg"
 width="436.000000pt" height="342.000000pt" viewBox="0 0 436.000000 342.000000"
 preserveAspectRatio="xMidYMid meet">
<metadata>
Created by potrace 1.16, written by Peter Selinger 2001-2019
</metadata>
<g transform="translate(0.000000,342.000000) scale(0.100000,-0.100000)"
fill="#000000" stroke="none">
<path d="M1049 3410 c-59 -10 -96 -30 -135 -72 -49 -51 -61 -83 -104 -280 -22
-100 -43 -191 -46 -200 -5 -16 -23 -18 -197 -18 -217 0 -309 -11 -369 -41 -62
-32 -135 -105 -165 -168 l-28 -56 0 -250 c0 -250 0 -250 27 -307 35 -76 98
-142 167 -175 l56 -28 291 -3 c317 -3 317 -3 317 53 0 54 -5 55 -269 55 -135
0 -265 5 -293 11 -65 14 -123 56 -158 116 -28 48 -28 49 -31 252 -4 249 1 275
72 347 70 69 94 74 386 74 141 0 249 4 260 10 24 13 30 33 85 279 25 112 50
212 55 222 6 10 25 28 42 41 l33 23 415 3 c267 2 428 0 450 -7 20 -6 49 -24
64 -40 26 -27 35 -57 82 -268 38 -170 58 -241 70 -250 14 -10 211 -13 962 -13
695 0 955 -3 984 -12 51 -15 126 -82 149 -133 16 -34 19 -68 19 -240 0 -167 3
-204 16 -223 22 -32 74 -27 91 8 16 31 17 317 2 410 -15 91 -61 174 -129 226
-78 62 -122 75 -282 81 l-136 6 -4 87 c-3 76 -7 93 -33 135 -21 35 -45 56 -80
74 -48 25 -54 26 -255 26 -200 0 -206 -1 -250 -25 -24 -14 -57 -44 -74 -67
-25 -36 -30 -56 -37 -130 -4 -48 -8 -91 -8 -95 -1 -5 -194 -8 -429 -8 l-428 0
-47 207 c-52 233 -73 280 -147 325 -25 15 -69 32 -99 38 -62 12 -792 12 -862
0z m2603 -389 c30 -27 33 -34 36 -105 l4 -76 -256 0 -256 0 0 64 c0 137 14
145 257 146 l183 0 32 -29z"/>
<path d="M1775 2394 c-476 -106 -805 -512 -805 -991 0 -261 104 -508 295 -699
186 -186 373 -272 657 -299 195 -19 478 65 648 192 126 94 268 269 320 395
l23 56 176 4 c166 3 179 4 221 28 149 84 149 306 0 390 -41 23 -56 25 -158 25
-101 0 -115 -2 -128 -19 -19 -27 -18 -60 4 -79 14 -13 39 -17 110 -17 50 0
102 -4 116 -10 29 -11 56 -57 56 -95 0 -33 -24 -80 -47 -91 -10 -5 -108 -11
-218 -14 l-200 -5 -60 -121 c-33 -67 -73 -139 -90 -160 -147 -194 -334 -309
-564 -348 -123 -21 -215 -20 -326 3 -358 74 -615 322 -702 679 -25 103 -22
295 5 402 48 184 159 359 305 476 239 193 551 250 842 153 207 -69 384 -210
486 -386 l30 -52 642 -3 c713 -3 681 0 756 -71 74 -70 71 -34 71 -777 0 -657
0 -666 -21 -705 -29 -56 -67 -94 -114 -116 -38 -18 -112 -19 -1926 -19 l-1885
0 -52 26 c-55 27 -99 79 -120 143 -9 24 -12 213 -12 667 0 689 2 664 -55 664
-57 0 -55 25 -55 -668 0 -663 2 -688 43 -768 26 -51 108 -125 167 -153 l55
-26 1910 0 1910 0 63 29 c78 36 151 113 184 194 l23 57 3 629 c2 383 -1 654
-7 693 -20 129 -92 230 -201 282 l-55 26 -627 3 -626 3 -61 83 c-127 175 -316
306 -537 372 -76 22 -112 27 -244 30 -115 3 -173 0 -225 -12z"/>
<path d="M1825 2063 c-126 -27 -273 -115 -354 -212 -45 -55 -96 -130 -90 -135
9 -8 89 -46 96 -46 5 0 17 16 27 35 32 59 130 149 204 188 91 48 168 67 270
67 159 0 282 -50 393 -160 170 -168 213 -415 111 -635 -34 -71 -130 -179 -202
-225 -117 -75 -296 -107 -425 -75 -86 21 -184 71 -249 127 -46 40 -146 177
-146 202 -1 31 -15 35 -68 20 -61 -18 -61 -18 -3 -129 55 -106 173 -221 281
-274 114 -55 194 -74 310 -74 491 1 817 518 605 958 -139 289 -443 436 -760
368z"/>
<path d="M1741 1695 c-125 -132 -154 -325 -74 -484 16 -30 33 -56 38 -58 6 -1
27 12 48 30 l37 32 -20 40 c-61 123 -36 276 61 371 l38 37 -31 44 c-17 23 -34
43 -38 43 -4 0 -30 -25 -59 -55z"/>
<path d="M3605 861 c-136 -63 -166 -231 -59 -337 111 -112 299 -62 344 93 49
163 -130 316 -285 244z m151 -123 c59 -53 15 -158 -66 -158 -54 0 -94 44 -92
101 2 76 99 111 158 57z"/>
</g>
</svg>
